#!OML:ASF I:\Actors\actors\Patient Classification 2\Patient 1\Session 1\actor1.ASF
:FULLY-SPECIFIED
:DEGREES
270
root -0.720429 18.7786 5.39244 5.06595 -13.0992 -5.95878
lowerback 10.3556 1.68244 -2.1387
upperback 4.99916 1.98023 -1.27599
thorax -0.630406 0.956116 -0.328849
lowerneck -2.21762 -0.837745 2.97068
upperneck 21.2042 -1.7597 1.4195
head 6.8134 -0.53789 -0.160791
rclavicle -2.3059e-014 -7.95139e-015
rhumerus 11.0349 16.9605 -45.0289
rradius 142.217
rwrist -22.6133
rhand -13.1568 -32.9813
rfingers 7.12502
rthumb 12.9421 -62.5599
lclavicle -2.3059e-014 -7.95139e-015
lhumerus -37.3538 1.61522 82.6137
lradius 44.2038
lwrist -7.28524
lhand -2.82218 -23.6522
lfingers 7.12502
lthumb 22.8846 5.00986
rfemur 0 0 0
rtibia 0
rfoot 0 0
rtoes 0
lfemur -8.50637 -2.64229 -8.76389
ltibia 24.308
lfoot -24.9546 17.974
ltoes -53.5699
271
root -0.730359 18.779 5.38467 5.10134 -13.0111 -5.98697
lowerback 10.3704 1.67364 -2.20444
upperback 4.90793 1.95984 -1.32251
thorax -0.733451 0.946738 -0.339906
lowerneck -2.22514 -0.864825 2.86383
upperneck 21.219 -1.76364 1.30014
head 6.81835 -0.556763 -0.181554
rclavicle 3.97569e-015 0
rhumerus 11.0627 16.9734 -45.0458
rradius 142.208
rwrist -22.0888
rhand -13.2715 -32.579
rfingers 7.12502
rthumb 12.8314 -62.1646
lclavicle 3.97569e-015 0
lhumerus -37.4791 1.67666 82.525
lradius 44.1785
lwrist -7.28835
lhand -2.84815 -23.5456
lfingers 7.12502
lthumb 22.8597 5.11957
rfemur 0 0 0
rtibia 0
rfoot 0 0
rtoes 0
lfemur -8.58084 -2.7611 -8.68748
ltibia 24.3122
lfoot -24.9347 18.0288
ltoes -53.6296
272
root -0.740008 18.7794 5.37574 5.1537 -12.9007 -6.00058
lowerback 10.3924 1.66771 -2.27657
upperback 4.79661 1.94179 -1.37306
thorax -0.861341 0.93886 -0.352371
lowerneck -2.1358 -0.91558 2.77611
upperneck 21.2186 -1.80174 1.20145
head 6.80132 -0.589847 -0.200371
rclavicle -7.95139e-015 2.54444e-014
rhumerus 10.8681 17.1517 -45.159
rradius 142.333
rwrist -21.6356
rhand -13.3221 -32.5106
rfingers 7.12502
rthumb 12.7827 -62.0993
lclavicle -7.95139e-015 2.54444e-014
lhumerus -37.6271 1.76792 82.432
lradius 44.1125
lwrist -7.42005
lhand -2.90285 -23.5876
lfingers 7.12502
lthumb 22.8072 5.08401
rfemur 0 0 0
rtibia 0
rfoot 0 0
rtoes 0
lfemur -8.68489 -2.84345 -8.62117
ltibia 24.3018
lfoot -24.8589 18.0681
ltoes -53.7996
273
root -0.747867 18.7784 5.37017 5.1008 -12.8421 -6.00001
lowerback 10.4923 1.69101 -2.31221
upperback 4.71446 1.96242 -1.45045
thorax -0.9997 0.950774 -0.419149
lowerneck -2.05559 -1.00078 2.70227
upperneck 21.2793 -1.89435 1.12338
head 6.80557 -0.645447 -0.218572
rclavicle 5.56597e-015 -1.59028e-015
rhumerus 10.6413 17.2881 -45.2547
rradius 142.417
rwrist -21.2931
rhand -13.4301 -32.4644
rfingers 7.12502
rthumb 12.6786 -62.0595
lclavicle 5.56597e-015 -1.59028e-015
lhumerus -37.7385 1.8604 82.3125
lradius 43.9826
lwrist -7.54283
lhand -2.88542 -23.6362
lfingers 7.12502
lthumb 22.8239 5.0334
rfemur 0 0 0
rtibia 0
rfoot 0 0
rtoes 0
lfemur -8.64728 -2.89096 -8.58433
ltibia 24.2873
lfoot -24.8381 18.0492
ltoes -53.8496
274
root -0.755969 18.7744 5.37051 4.84984 -12.9262 -6.01398
lowerback 10.6959 1.76677 -2.34444
upperback 4.73491 2.05019 -1.51592
thorax -1.08875 0.994776 -0.484785
lowerneck -2.05466 -1.10592 2.59795
upperneck 21.3431 -2.00864 1.01641
head 6.82432 -0.715389 -0.242875
rclavicle 1.55052e-014 -9.54166e-015
rhumerus 10.5423 17.2875 -45.2881
rradius 142.431
rwrist -21.1232
rhand -13.5988 -32.1686
rfingers 7.12502
rthumb 12.516 -61.7738
lclavicle 1.55052e-014 -9.54166e-015
lhumerus -37.7741 1.9966 82.2078
lradius 43.8708
lwrist -7.60308
lhand -2.775 -23.6375
lfingers 7.12502
lthumb 22.9299 5.01895
rfemur 0 0 0
rtibia 0
rfoot 0 0
rtoes 0
lfemur -8.31358 -2.90218 -8.56479
ltibia 24.2646
lfoot -24.9074 18.0582
ltoes -53.8325
275
root -0.769105 18.7788 5.35583 5.16093 -12.6662 -5.96535
lowerback 10.4263 1.729 -2.47745
upperback 4.63946 1.99596 -1.56365
thorax -1.043 0.967354 -0.446754
lowerneck -2.13643 -1.20258 2.50252
upperneck 21.3853 -2.10813 0.879988
head 6.85023 -0.779525 -0.277828
rclavicle 1.63003e-014 -4.77083e-014
rhumerus 10.4963 17.1249 -45.2817
rradius 142.453
rwrist -21.1121
rhand -13.637 -32.0034
rfingers 7.12502
rthumb 12.4791 -61.6108
lclavicle 1.63003e-014 -4.77083e-014
lhumerus -37.7473 2.06108 82.1595
lradius 43.8495
lwrist -7.65575
lhand -2.73891 -23.6529
lfingers 7.12502
lthumb 22.9645 4.99923
rfemur 0 0 0
rtibia 0
rfoot 0 0
rtoes 0
lfemur -8.78023 -2.86475 -8.50537
ltibia 24.2405
lfoot -24.6676 17.9471
ltoes -53.907
276
root -0.781863 18.7801 5.34649 5.27396 -12.5137 -5.96668
lowerback 10.2884 1.72786 -2.57041
upperback 4.63232 1.9908 -1.60126
thorax -0.976709 0.963742 -0.428879
lowerneck -2.2681 -1.30112 2.44544
upperneck 21.4955 -2.20893 0.703217
head 6.90608 -0.843546 -0.333301
rclavicle -2.42517e-014 2.06736e-014
rhumerus 10.4663 16.9341 -45.2914
rradius 142.484
rwrist -21.1637
rhand -13.5596 -31.9372
rfingers 7.12502
rthumb 12.5537 -61.5401
lclavicle -2.42517e-014 2.06736e-014
lhumerus -37.7037 2.04174 82.15
lradius 43.878
lwrist -7.6574
lhand -2.72955 -23.6341
lfingers 7.12502
lthumb 22.9735 5.01693
rfemur 0 0 0
rtibia 0
rfoot 0 0
rtoes 0
lfemur -8.96208 -2.93184 -8.42545
ltibia 24.2186
lfoot -24.6019 17.8988
ltoes -53.8794
277
root -0.792974 18.781 5.34042 5.28119 -12.4398 -5.9775
lowerback 10.2472 1.72503 -2.6509
upperback 4.62212 1.98073 -1.62592
thorax -0.966281 0.957988 -0.407101
lowerneck -2.31842 -1.39736 2.33939
upperneck 21.6503 -2.30726 0.560329
head 6.96311 -0.907935 -0.369273
rclavicle -2.18663e-014 3.18055e-014
rhumerus 10.4617 16.8768 -45.3351
rradius 142.514
rwrist -21.2282
rhand -13.4854 -31.8594
rfingers 7.12502
rthumb 12.6253 -61.4579
lclavicle -2.18663e-014 3.18055e-014
lhumerus -37.7283 2.08313 82.1529
lradius 43.8816
lwrist -7.66271
lhand -2.76935 -23.6934
lfingers 7.12502
lthumb 22.9353 4.96239
rfemur 0 0 0
rtibia 0
rfoot 0 0
rtoes 0
lfemur -8.99296 -3.03421 -8.36385
ltibia 24.208
lfoot -24.5854 17.9299
ltoes -53.8748
278
root -0.803823 18.7814 5.3335 5.31504 -12.3716 -5.99203
lowerback 10.2091 1.71016 -2.72104
upperback 4.57203 1.95498 -1.63892
thorax -0.998879 0.945111 -0.378179
lowerneck -2.31229 -1.47775 2.10016
upperneck 21.8608 -2.39774 0.554177
head 7.03193 -0.968134 -0.338142
rclavicle 5.08889e-014 -3.49861e-014
rhumerus 10.4514 16.8427 -45.3856
rradius 142.525
rwrist -21.3212
rhand -13.3194 -31.8259
rfingers 7.12502
rthumb 12.7853 -61.4144
lclavicle 5.08889e-014 -3.49861e-014
lhumerus -37.8458 2.1298 82.1831
lradius 43.8937
lwrist -7.62999
lhand -2.90307 -23.7061
lfingers 7.12502
lthumb 22.807 4.96558
rfemur 0 0 0
rtibia 0
rfoot 0 0
rtoes 0
lfemur -9.05006 -3.12534 -8.30112
ltibia 24.1926
lfoot -24.5575 18.0025
ltoes -53.8949
279
root -0.815408 18.7806 5.32686 5.34583 -12.315 -6.02136
lowerback 10.1746 1.69924 -2.78059
upperback 4.53166 1.93555 -1.64762
thorax -1.02319 0.935356 -0.351368
lowerneck -2.34971 -1.56424 1.84715
upperneck 22.1385 -2.49597 0.539644
head 7.13088 -1.03321 -0.308868
rclavicle 4.37326e-015 -1.11319e-014
rhumerus 10.4 16.8152 -45.4708
rradius 142.544
rwrist -21.376
rhand -13.1042 -31.7201
rfingers 7.12502
rthumb 12.9928 -61.2955
lclavicle 4.37326e-015 -1.11319e-014
lhumerus -37.9819 2.15088 82.2109
lradius 43.9517
lwrist -7.5528
lhand -2.9536 -23.6621
lfingers 7.12502
lthumb 22.7585 5.01552
rfemur 0 0 0
rtibia 0
rfoot 0 0
rtoes 0
lfemur -9.09128 -3.15793 -8.21575
ltibia 24.1672
lfoot -24.526 17.992
ltoes -53.8761
280
root -0.825379 18.7777 5.32837 5.19179 -12.4167 -6.05547
lowerback 10.2068 1.73622 -2.82003
upperback 4.56585 1.97948 -1.66833
thorax -1.00635 0.956381 -0.355942
lowerneck -2.45417 -1.69907 1.60607
upperneck 22.5651 -2.64936 0.443362
head 7.28959 -1.12914 -0.313839
rclavicle 1.23246e-014 3.18055e-014
rhumerus 10.3146 16.8833 -45.6024
rradius 142.59
rwrist -21.3716
rhand -13.0499 -31.5673
rfingers 7.12502
rthumb 13.045 -61.1393
lclavicle 1.23246e-014 3.18055e-014
lhumerus -38.0964 2.18532 82.2176
lradius 43.9807
lwrist -7.53205
lhand -2.98638 -23.6471
lfingers 7.12502
lthumb 22.727 5.03441
rfemur 0 0 0
rtibia 0
rfoot 0 0
rtoes 0
lfemur -8.8528 -3.1701 -8.17189
ltibia 24.1383
lfoot -24.586 18.0246
ltoes -53.8691
281
root -0.831286 18.7707 5.34256 4.74471 -12.7653 -6.12887
lowerback 10.3723 1.86103 -2.75749
upperback 4.71038 2.14472 -1.70263
thorax -0.945352 1.03768 -0.447344
lowerneck -2.62734 -1.8707 1.25137
upperneck 23.1662 -2.86203 0.427748
head 7.5223 -1.25486 -0.280219
rclavicle 7.95139e-015 -2.54444e-014
rhumerus 10.1963 16.8781 -45.7178
rradius 142.66
rwrist -21.4892
rhand -12.9556 -31.4521
rfingers 7.12502
rthumb 13.136 -61.0183
lclavicle 7.95139e-015 -2.54444e-014
lhumerus -38.1705 2.14511 82.2698
lradius 43.9655
lwrist -7.46115
lhand -3.05931 -23.5127
lfingers 7.12502
lthumb 22.657 5.17734
rfemur 0 0 0
rtibia 0
rfoot 0 0
rtoes 0
lfemur -8.15608 -3.35854 -8.18246
ltibia 24.1039
lfoot -24.9519 18.3071
ltoes -53.7462
282
root -0.84096 18.7703 5.33963 4.73402 -12.7672 -6.14777
lowerback 10.3298 1.87398 -2.76647
upperback 4.6985 2.16236 -1.7177
thorax -0.934431 1.04653 -0.458677
lowerneck -2.71434 -2.06809 0.945123
upperneck 23.6321 -3.0838 0.295079
head 7.69422 -1.39322 -0.292528
rclavicle -1.98785e-015 -1.59028e-015
rhumerus 10.0787 16.7748 -45.7967
rradius 142.736
rwrist -21.7534
rhand -12.7722 -31.2722
rfingers 7.12502
rthumb 13.3128 -60.8269
lclavicle -1.98785e-015 -1.59028e-015
lhumerus -38.1969 2.08358 82.3505
lradius 43.9487
lwrist -7.3495
lhand -3.12387 -23.4525
lfingers 7.12502
lthumb 22.5951 5.24508
rfemur 0 0 0
rtibia 0
rfoot 0 0
rtoes 0
lfemur -8.12436 -3.45874 -8.13677
ltibia 24.076
lfoot -25.0089 18.3696
ltoes -53.6651
283
root -0.852318 18.7702 5.33416 4.75404 -12.7079 -6.14146
lowerback 10.3147 1.87105 -2.82665
upperback 4.67162 2.153 -1.71882
thorax -0.955981 1.04152 -0.425162
lowerneck -2.76304 -2.30207 0.682279
upperneck 23.9767 -3.3325 0.0549014
head 7.81732 -1.55183 -0.348876
rclavicle 7.95139e-015 -1.43125e-014
rhumerus 9.96982 16.7101 -45.8905
rradius 142.765
rwrist -21.8908
rhand -12.7121 -31.0147
rfingers 7.12502
rthumb 13.3708 -60.5657
lclavicle 7.95139e-015 -1.43125e-014
lhumerus -38.1718 2.13287 82.3916
lradius 43.8863
lwrist -7.39582
lhand -3.09036 -23.672
lfingers 7.12502
lthumb 22.6272 5.02165
rfemur 0 0 0
rtibia 0
rfoot 0 0
rtoes 0
lfemur -8.16484 -3.45741 -8.08783
ltibia 24.0621
lfoot -24.9622 18.3256
ltoes -53.6608
284
root -0.86439 18.7696 5.32863 4.77713 -12.6724 -6.15835
lowerback 10.2895 1.86407 -2.87717
upperback 4.64924 2.13992 -1.71039
thorax -0.967364 1.0346 -0.386342
lowerneck -2.79919 -2.53093 0.36043
upperneck 24.3082 -3.57796 -0.130956
head 7.93689 -1.71029 -0.377744
rclavicle 3.37934e-014 -1.90833e-014
rhumerus 9.90054 16.6181 -45.975
rradius 142.754
rwrist -21.9451
rhand -12.6437 -30.8832
rfingers 7.12502
rthumb 13.4366 -60.4298
lclavicle 3.37934e-014 -1.90833e-014
lhumerus -38.1782 2.25649 82.4085
lradius 43.8595
lwrist -7.53915
lhand -2.97761 -23.8986
lfingers 7.12502
lthumb 22.7355 4.78184
rfemur 0 0 0
rtibia 0
rfoot 0 0
rtoes 0
lfemur -8.20451 -3.43307 -8.0106
ltibia 24.0607
lfoot -24.9216 18.2862
ltoes -53.6724
